<svg width="800" height="400" viewBox="0 0 800 400" xmlns="http://www.w3.org/2000/svg"><mask id="satori_om-id"><rect x="0" y="0" width="800" height="400" fill="#fff"/></mask><rect x="0" y="0" width="800" height="400" fill="white"/><mask id="satori_om-id-0"><rect x="42" y="42" width="148" height="24" fill="#fff"/></mask><mask id="satori_om-id-0-0"><rect x="42" y="42" width="24" height="24" fill="#fff"/></mask><rect x="42" y="42" width="24" height="24" fill="black"/><mask id="satori_om-id-0-1"><rect x="74" y="42" width="116" height="24" fill="#fff"/></mask><path fill="black" d="M80.6 60.7L77.4 60.7L74.4 49.8L77.5 49.8L79.1 57.1L79.2 57.1L81.0 49.8L84.0 49.8L85.8 57.1L85.9 57.1L87.6 49.8L90.6 49.8L87.6 60.7L84.4 60.7L82.6 53.9L82.4 53.9L80.6 60.7ZM96.6 60.9L96.6 60.9Q94.9 60.9 93.7 60.2Q92.5 59.6 91.8 58.3Q91.2 57.0 91.2 55.3L91.2 55.3Q91.2 53.6 91.8 52.4Q92.5 51.1 93.7 50.4Q94.9 49.7 96.5 49.7L96.5 49.7Q97.6 49.7 98.5 50.0Q99.4 50.4 100.1 51.0Q100.8 51.7 101.2 52.8Q101.6 53.8 101.6 55.2L101.6 55.2L101.6 56.0L92.4 56.0L92.4 54.2L98.8 54.2Q98.8 53.5 98.5 53.0Q98.2 52.5 97.7 52.2Q97.2 51.9 96.5 51.9L96.5 51.9Q95.8 51.9 95.3 52.2Q94.8 52.6 94.5 53.1Q94.2 53.6 94.2 54.3L94.2 54.3L94.2 56.0Q94.2 56.9 94.5 57.4Q94.8 58.0 95.3 58.4Q95.9 58.7 96.6 58.7L96.6 58.7Q97.1 58.7 97.6 58.5Q98.0 58.4 98.3 58.1Q98.6 57.8 98.7 57.4L98.7 57.4L101.5 57.6Q101.3 58.6 100.7 59.4Q100.0 60.1 99.0 60.5Q97.9 60.9 96.6 60.9ZM106.3 60.7L103.3 60.7L103.3 46.2L106.3 46.2L106.3 51.6L106.4 51.6Q106.6 51.2 107.0 50.7Q107.4 50.3 108.0 50.0Q108.6 49.7 109.5 49.7L109.5 49.7Q110.7 49.7 111.7 50.3Q112.7 50.9 113.3 52.2Q113.9 53.4 113.9 55.3L113.9 55.3Q113.9 57.1 113.4 58.4Q112.8 59.6 111.8 60.3Q110.8 60.9 109.5 60.9L109.5 60.9Q108.6 60.9 108.0 60.6Q107.4 60.3 107.0 59.9Q106.6 59.4 106.4 59.0L106.4 59.0L106.3 59.0L106.3 60.7ZM106.3 55.3L106.3 55.3Q106.3 56.2 106.5 57.0Q106.8 57.7 107.3 58.1Q107.8 58.5 108.6 58.5L108.6 58.5Q109.3 58.5 109.8 58.1Q110.3 57.7 110.6 56.9Q110.9 56.2 110.9 55.3L110.9 55.3Q110.9 54.3 110.6 53.6Q110.3 52.9 109.8 52.5Q109.3 52.1 108.6 52.1L108.6 52.1Q107.8 52.1 107.3 52.5Q106.8 52.9 106.5 53.6Q106.3 54.3 106.3 55.3ZM115.6 46.2L118.7 46.2L118.7 60.7L115.6 60.7L115.6 46.2ZM120.8 46.2L123.8 46.2L123.8 60.7L120.8 60.7L120.8 46.2ZM130.8 60.9L130.8 60.9Q129.2 60.9 128.0 60.2Q126.7 59.5 126.1 58.3Q125.4 57.0 125.4 55.3L125.4 55.3Q125.4 53.6 126.1 52.4Q126.7 51.1 128.0 50.4Q129.2 49.7 130.8 49.7L130.8 49.7Q132.5 49.7 133.7 50.4Q134.9 51.1 135.5 52.4Q136.2 53.6 136.2 55.3L136.2 55.3Q136.2 57.0 135.5 58.3Q134.9 59.5 133.7 60.2Q132.5 60.9 130.8 60.9ZM130.8 58.6L130.8 58.6Q131.6 58.6 132.1 58.2Q132.6 57.7 132.8 57.0Q133.1 56.2 133.1 55.3L133.1 55.3Q133.1 54.3 132.8 53.6Q132.6 52.8 132.1 52.4Q131.6 52.0 130.8 52.0L130.8 52.0Q130.1 52.0 129.5 52.4Q129.0 52.8 128.8 53.6Q128.5 54.3 128.5 55.3L128.5 55.3Q128.5 56.2 128.8 57.0Q129.0 57.7 129.5 58.2Q130.1 58.6 130.8 58.6ZM140.9 64.8L137.8 64.8L137.8 49.8L140.8 49.8L140.8 51.6L141.0 51.6Q141.1 51.2 141.5 50.7Q141.9 50.3 142.5 50.0Q143.1 49.7 144.1 49.7L144.1 49.7Q145.2 49.7 146.3 50.3Q147.3 50.9 147.9 52.2Q148.5 53.4 148.5 55.3L148.5 55.3Q148.5 57.1 147.9 58.4Q147.3 59.6 146.3 60.3Q145.3 60.9 144.0 60.9L144.0 60.9Q143.2 60.9 142.6 60.6Q141.9 60.3 141.5 59.9Q141.2 59.4 141.0 59.0L141.0 59.0L140.9 59.0L140.9 64.8ZM140.8 55.3L140.8 55.3Q140.8 56.2 141.1 57.0Q141.3 57.7 141.8 58.1Q142.4 58.5 143.1 58.5L143.1 58.5Q143.8 58.5 144.3 58.1Q144.8 57.7 145.1 56.9Q145.4 56.2 145.4 55.3L145.4 55.3Q145.4 54.3 145.1 53.6Q144.9 52.9 144.3 52.5Q143.8 52.1 143.1 52.1L143.1 52.1Q142.3 52.1 141.8 52.5Q141.3 52.9 141.1 53.6Q140.8 54.3 140.8 55.3ZM155.1 60.9L155.1 60.9Q153.5 60.9 152.2 60.2Q151.0 59.6 150.4 58.3Q149.7 57.0 149.7 55.3L149.7 55.3Q149.7 53.6 150.4 52.4Q151.0 51.1 152.2 50.4Q153.4 49.7 155.0 49.7L155.0 49.7Q156.1 49.7 157.0 50.0Q158.0 50.4 158.7 51.0Q159.4 51.7 159.8 52.8Q160.1 53.8 160.1 55.2L160.1 55.2L160.1 56.0L150.9 56.0L150.9 54.2L157.3 54.2Q157.3 53.5 157.0 53.0Q156.7 52.5 156.2 52.2Q155.7 51.9 155.1 51.9L155.1 51.9Q154.4 51.9 153.8 52.2Q153.3 52.6 153.0 53.1Q152.7 53.6 152.7 54.3L152.7 54.3L152.7 56.0Q152.7 56.9 153.0 57.4Q153.3 58.0 153.9 58.4Q154.4 58.7 155.2 58.7L155.2 58.7Q155.7 58.7 156.1 58.5Q156.5 58.4 156.8 58.1Q157.1 57.8 157.3 57.4L157.3 57.4L160.1 57.6Q159.9 58.6 159.2 59.4Q158.5 60.1 157.5 60.5Q156.5 60.9 155.1 60.9ZM163.6 60.9L163.6 60.9Q162.9 60.9 162.4 60.4Q161.9 59.9 161.9 59.2L161.9 59.2Q161.9 58.5 162.4 58.0Q162.9 57.5 163.6 57.5L163.6 57.5Q164.2 57.5 164.8 58.0Q165.3 58.5 165.3 59.2L165.3 59.2Q165.3 59.7 165.0 60.1Q164.8 60.4 164.4 60.7Q164.0 60.9 163.6 60.9ZM172.4 60.9L172.4 60.9Q170.7 60.9 169.5 60.2Q168.3 59.6 167.6 58.3Q167.0 57.0 167.0 55.3L167.0 55.3Q167.0 53.6 167.6 52.4Q168.3 51.1 169.5 50.4Q170.7 49.7 172.3 49.7L172.3 49.7Q173.4 49.7 174.3 50.0Q175.2 50.4 175.9 51.0Q176.6 51.7 177.0 52.8Q177.4 53.8 177.4 55.2L177.4 55.2L177.4 56.0L168.2 56.0L168.2 54.2L174.6 54.2Q174.6 53.5 174.3 53.0Q174.0 52.5 173.5 52.2Q173.0 51.9 172.3 51.9L172.3 51.9Q171.6 51.9 171.1 52.2Q170.6 52.6 170.3 53.1Q170.0 53.6 170.0 54.3L170.0 54.3L170.0 56.0Q170.0 56.9 170.3 57.4Q170.6 58.0 171.1 58.4Q171.7 58.7 172.4 58.7L172.4 58.7Q173.0 58.7 173.4 58.5Q173.8 58.4 174.1 58.1Q174.4 57.8 174.5 57.4L174.5 57.4L177.3 57.6Q177.1 58.6 176.5 59.4Q175.8 60.1 174.8 60.5Q173.7 60.9 172.4 60.9ZM188.1 52.9L188.1 52.9L185.4 53.1Q185.3 52.7 185.1 52.4Q184.8 52.2 184.4 52.0Q184.1 51.8 183.5 51.8L183.5 51.8Q182.8 51.8 182.4 52.1Q181.9 52.4 181.9 52.9L181.9 52.9Q181.9 53.3 182.2 53.6Q182.5 53.8 183.3 54.0L183.3 54.0L185.2 54.4Q186.8 54.7 187.6 55.4Q188.4 56.2 188.4 57.3L188.4 57.3Q188.4 58.4 187.8 59.2Q187.1 60.0 186.0 60.5Q184.9 60.9 183.5 60.9L183.5 60.9Q181.4 60.9 180.1 60.0Q178.8 59.1 178.6 57.6L178.6 57.6L181.6 57.4Q181.7 58.1 182.2 58.4Q182.7 58.8 183.5 58.8L183.5 58.8Q184.3 58.8 184.8 58.4Q185.3 58.1 185.3 57.6L185.3 57.6Q185.3 57.2 185.0 57.0Q184.6 56.7 183.9 56.6L183.9 56.6L182.0 56.2Q180.4 55.9 179.6 55.1Q178.9 54.3 178.9 53.1L178.9 53.1Q178.9 52.0 179.4 51.3Q180.0 50.5 181.1 50.1Q182.1 49.7 183.5 49.7L183.5 49.7Q185.6 49.7 186.7 50.5Q187.9 51.4 188.1 52.9Z "/><mask id="satori_om-id-1"><rect x="125" y="124" width="550" height="152" fill="#fff"/></mask><rect x="125" y="124" width="550" height="152" fill="black"/><path fill="white" d="M211.0 161.5L202.1 161.5L202.1 156.4L226.0 156.4L226.0 161.5L217.1 161.5L217.1 185.5L211.0 185.5L211.0 161.5ZM235.5 172.9L235.5 172.9L235.5 185.5L229.5 185.5L229.5 156.4L235.4 156.4L235.4 167.5L235.6 167.5Q236.4 165.6 238.0 164.5Q239.7 163.4 242.1 163.4L242.1 163.4Q244.4 163.4 246.1 164.4Q247.8 165.3 248.8 167.2Q249.7 169.0 249.7 171.6L249.7 171.6L249.7 185.5L243.6 185.5L243.6 172.7Q243.6 170.6 242.6 169.5Q241.6 168.4 239.7 168.4L239.7 168.4Q238.5 168.4 237.6 168.9Q236.6 169.5 236.1 170.5Q235.6 171.5 235.5 172.9ZM264.1 185.9L264.1 185.9Q260.7 185.9 258.3 184.5Q255.9 183.2 254.6 180.6Q253.3 178.1 253.3 174.7L253.3 174.7Q253.3 171.3 254.6 168.8Q255.9 166.2 258.2 164.8Q260.6 163.4 263.8 163.4L263.8 163.4Q266.0 163.4 267.9 164.1Q269.7 164.7 271.1 166.1Q272.5 167.5 273.3 169.6Q274.1 171.7 274.1 174.5L274.1 174.5L274.1 176.1L255.7 176.1L255.7 172.4L268.4 172.4Q268.4 171.1 267.8 170.0Q267.3 169.0 266.3 168.5Q265.3 167.9 263.9 167.9L263.9 167.9Q262.6 167.9 261.5 168.5Q260.4 169.2 259.8 170.2Q259.3 171.3 259.2 172.6L259.2 172.6L259.2 176.1Q259.2 177.7 259.8 178.9Q260.4 180.1 261.6 180.7Q262.7 181.4 264.2 181.4L264.2 181.4Q265.2 181.4 266.0 181.1Q266.9 180.8 267.5 180.2Q268.1 179.7 268.4 178.9L268.4 178.9L274.0 179.2Q273.5 181.2 272.2 182.7Q270.9 184.2 268.8 185.1Q266.8 185.9 264.1 185.9Z M297.4 185.5L291.0 185.5L285.0 163.7L291.2 163.7L294.5 178.3L294.7 178.3L298.3 163.7L304.3 163.7L307.9 178.2L308.0 178.2L311.4 163.7L317.5 163.7L311.6 185.5L305.1 185.5L301.4 171.8L301.1 171.8L297.4 185.5ZM329.8 185.9L329.8 185.9Q326.4 185.9 324.0 184.5Q321.6 183.2 320.3 180.6Q318.9 178.1 318.9 174.7L318.9 174.7Q318.9 171.3 320.3 168.8Q321.6 166.2 323.9 164.8Q326.3 163.4 329.5 163.4L329.5 163.4Q331.7 163.4 333.6 164.1Q335.4 164.7 336.8 166.1Q338.2 167.5 339.0 169.6Q339.8 171.7 339.8 174.5L339.8 174.5L339.8 176.1L321.4 176.1L321.4 172.4L334.1 172.4Q334.1 171.1 333.5 170.0Q332.9 169.0 331.9 168.5Q330.9 167.9 329.6 167.9L329.6 167.9Q328.2 167.9 327.2 168.5Q326.1 169.2 325.5 170.2Q324.9 171.3 324.9 172.6L324.9 172.6L324.9 176.1Q324.9 177.7 325.5 178.9Q326.1 180.1 327.2 180.7Q328.3 181.4 329.9 181.4L329.9 181.4Q330.9 181.4 331.7 181.1Q332.6 180.8 333.1 180.2Q333.7 179.7 334.1 178.9L334.1 178.9L339.7 179.2Q339.2 181.2 337.9 182.7Q336.6 184.2 334.5 185.1Q332.5 185.9 329.8 185.9ZM349.5 185.5L343.5 185.5L343.5 156.4L349.6 156.4L349.6 167.3L349.8 167.3Q350.2 166.4 350.9 165.5Q351.7 164.6 352.9 164.0Q354.1 163.4 356.0 163.4L356.0 163.4Q358.4 163.4 360.4 164.6Q362.4 165.9 363.6 168.4Q364.8 170.8 364.8 174.6L364.8 174.6Q364.8 178.2 363.6 180.8Q362.5 183.3 360.4 184.5Q358.4 185.8 356.0 185.8L356.0 185.8Q354.2 185.8 353.0 185.2Q351.7 184.7 351.0 183.8Q350.2 182.9 349.8 182.0L349.8 182.0L349.5 182.0L349.5 185.5ZM349.4 174.6L349.4 174.6Q349.4 176.5 350.0 178.0Q350.5 179.4 351.5 180.2Q352.6 181.0 354.0 181.0L354.0 181.0Q355.5 181.0 356.5 180.2Q357.6 179.4 358.1 177.9Q358.6 176.5 358.6 174.6L358.6 174.6Q358.6 172.7 358.1 171.2Q357.6 169.8 356.5 169.0Q355.5 168.2 354.0 168.2L354.0 168.2Q352.6 168.2 351.5 169.0Q350.5 169.7 350.0 171.2Q349.4 172.6 349.4 174.6ZM386.7 169.9L386.7 169.9L381.1 170.2Q381.0 169.5 380.5 168.9Q380.0 168.4 379.3 168.0Q378.5 167.7 377.5 167.7L377.5 167.7Q376.1 167.7 375.1 168.3Q374.1 168.8 374.1 169.8L374.1 169.8Q374.1 170.6 374.8 171.1Q375.4 171.7 376.9 172.0L376.9 172.0L380.8 172.8Q384.0 173.5 385.6 174.9Q387.2 176.4 387.2 178.7L387.2 178.7Q387.2 180.9 385.9 182.5Q384.6 184.1 382.5 185.0Q380.3 185.9 377.4 185.9L377.4 185.9Q373.1 185.9 370.5 184.1Q368.0 182.3 367.5 179.2L367.5 179.2L373.5 178.8Q373.8 180.2 374.8 180.9Q375.8 181.5 377.5 181.5L377.5 181.5Q379.0 181.5 380.0 180.9Q381.0 180.3 381.0 179.3L381.0 179.3Q381.0 178.5 380.3 178.0Q379.6 177.4 378.2 177.2L378.2 177.2L374.4 176.4Q371.2 175.8 369.7 174.2Q368.1 172.6 368.1 170.2L368.1 170.2Q368.1 168.1 369.3 166.5Q370.4 165.0 372.5 164.2Q374.6 163.4 377.4 163.4L377.4 163.4Q381.5 163.4 383.9 165.1Q386.3 166.9 386.7 169.9ZM396.7 185.5L390.7 185.5L390.7 163.7L396.7 163.7L396.7 185.5ZM393.7 160.8L393.7 160.8Q392.3 160.8 391.4 159.9Q390.4 159.0 390.4 157.8L390.4 157.8Q390.4 156.5 391.4 155.6Q392.3 154.7 393.7 154.7L393.7 154.7Q395.0 154.7 396.0 155.6Q397.0 156.5 397.0 157.8L397.0 157.8Q397.0 159.0 396.0 159.9Q395.0 160.8 393.7 160.8ZM399.7 163.7L412.8 163.7L412.8 168.2L399.7 168.2L399.7 163.7ZM402.7 179.6L402.7 158.4L408.7 158.4L408.7 178.8Q408.7 179.6 409.0 180.1Q409.2 180.5 409.7 180.7Q410.1 180.9 410.8 180.9L410.8 180.9Q411.2 180.9 411.6 180.8Q412.0 180.7 412.3 180.7L412.3 180.7L413.2 185.2Q412.8 185.3 411.9 185.5Q411.1 185.7 409.9 185.8L409.9 185.8Q407.7 185.9 406.1 185.2Q404.5 184.5 403.6 183.1Q402.6 181.7 402.7 179.6L402.7 179.6ZM426.2 185.9L426.2 185.9Q422.8 185.9 420.4 184.5Q417.9 183.2 416.6 180.6Q415.3 178.1 415.3 174.7L415.3 174.7Q415.3 171.3 416.6 168.8Q417.9 166.2 420.3 164.8Q422.7 163.4 425.9 163.4L425.9 163.4Q428.1 163.4 429.9 164.1Q431.8 164.7 433.2 166.1Q434.6 167.5 435.4 169.6Q436.2 171.7 436.2 174.5L436.2 174.5L436.2 176.1L417.7 176.1L417.7 172.4L430.5 172.4Q430.5 171.1 429.9 170.0Q429.3 169.0 428.3 168.5Q427.3 167.9 426.0 167.9L426.0 167.9Q424.6 167.9 423.6 168.5Q422.5 169.2 421.9 170.2Q421.3 171.3 421.3 172.6L421.3 172.6L421.3 176.1Q421.3 177.7 421.9 178.9Q422.5 180.1 423.6 180.7Q424.7 181.4 426.3 181.4L426.3 181.4Q427.3 181.4 428.1 181.1Q428.9 180.8 429.5 180.2Q430.1 179.7 430.4 178.9L430.4 178.9L436.0 179.2Q435.6 181.2 434.3 182.7Q433.0 184.2 430.9 185.1Q428.8 185.9 426.2 185.9Z M447.8 163.7L461.2 163.7L461.2 168.2L447.8 168.2L447.8 163.7ZM456.9 185.5L450.9 185.5L450.9 162.1Q450.9 159.7 451.8 158.1Q452.7 156.6 454.3 155.8Q456.0 155.0 458.0 155.0L458.0 155.0Q459.4 155.0 460.6 155.2Q461.7 155.4 462.3 155.6L462.3 155.6L461.2 160.2Q460.9 160.0 460.3 159.9Q459.8 159.8 459.3 159.8L459.3 159.8Q458.0 159.8 457.4 160.5Q456.9 161.1 456.9 162.2L456.9 162.2L456.9 185.5ZM473.7 185.9L473.7 185.9Q470.4 185.9 468.0 184.5Q465.6 183.1 464.3 180.5Q463.0 178.0 463.0 174.7L463.0 174.7Q463.0 171.3 464.3 168.7Q465.6 166.2 468.0 164.8Q470.4 163.4 473.7 163.4L473.7 163.4Q477.0 163.4 479.4 164.8Q481.8 166.2 483.1 168.7Q484.5 171.3 484.5 174.7L484.5 174.7Q484.5 178.0 483.1 180.5Q481.8 183.1 479.4 184.5Q477.0 185.9 473.7 185.9ZM473.7 181.2L473.7 181.2Q475.2 181.2 476.3 180.4Q477.3 179.5 477.8 178.0Q478.3 176.5 478.3 174.6L478.3 174.6Q478.3 172.7 477.8 171.2Q477.3 169.7 476.3 168.9Q475.2 168.0 473.7 168.0L473.7 168.0Q472.2 168.0 471.2 168.9Q470.2 169.7 469.6 171.2Q469.1 172.7 469.1 174.6L469.1 174.6Q469.1 176.5 469.6 178.0Q470.2 179.5 471.2 180.4Q472.2 181.2 473.7 181.2ZM494.1 185.5L488.1 185.5L488.1 163.7L493.9 163.7L493.9 167.5L494.2 167.5Q494.8 165.4 496.2 164.4Q497.6 163.3 499.4 163.3L499.4 163.3Q499.9 163.3 500.4 163.4Q500.9 163.5 501.3 163.6L501.3 163.6L501.3 168.9Q500.9 168.8 500.1 168.7Q499.4 168.6 498.8 168.6L498.8 168.6Q497.4 168.6 496.4 169.2Q495.3 169.7 494.7 170.8Q494.1 171.8 494.1 173.1L494.1 173.1L494.1 185.5Z M517.6 193.7L517.6 193.7Q516.4 193.7 515.4 193.5Q514.4 193.3 513.8 193.0L513.8 193.0L515.1 188.5Q516.2 188.8 517.1 188.9Q517.9 188.9 518.5 188.5Q519.2 188.0 519.6 187.0L519.6 187.0L519.9 186.1L512.1 163.7L518.5 163.7L523.0 179.7L523.2 179.7L527.8 163.7L534.2 163.7L525.7 187.8Q525.1 189.6 524.0 190.9Q523.0 192.2 521.4 192.9Q519.8 193.7 517.6 193.7ZM546.1 185.9L546.1 185.9Q542.8 185.9 540.4 184.5Q538.0 183.1 536.7 180.5Q535.3 178.0 535.3 174.7L535.3 174.7Q535.3 171.3 536.7 168.7Q538.0 166.2 540.4 164.8Q542.8 163.4 546.1 163.4L546.1 163.4Q549.4 163.4 551.8 164.8Q554.2 166.2 555.5 168.7Q556.8 171.3 556.8 174.7L556.8 174.7Q556.8 178.0 555.5 180.5Q554.2 183.1 551.8 184.5Q549.4 185.9 546.1 185.9ZM546.1 181.2L546.1 181.2Q547.6 181.2 548.6 180.4Q549.6 179.5 550.2 178.0Q550.7 176.5 550.7 174.6L550.7 174.6Q550.7 172.7 550.2 171.2Q549.6 169.7 548.6 168.9Q547.6 168.0 546.1 168.0L546.1 168.0Q544.6 168.0 543.6 168.9Q542.5 169.7 542.0 171.2Q541.5 172.7 541.5 174.6L541.5 174.6Q541.5 176.5 542.0 178.0Q542.5 179.5 543.6 180.4Q544.6 181.2 546.1 181.2ZM574.4 176.2L574.4 176.2L574.4 163.7L580.5 163.7L580.5 185.5L574.7 185.5L574.7 181.5L574.5 181.5Q573.7 183.4 572.0 184.6Q570.3 185.8 567.8 185.8L567.8 185.8Q565.7 185.8 564.0 184.8Q562.3 183.8 561.4 181.9Q560.5 180.1 560.5 177.5L560.5 177.5L560.5 163.7L566.5 163.7L566.5 176.5Q566.5 178.4 567.5 179.5Q568.6 180.6 570.3 180.6L570.3 180.6Q571.4 180.6 572.3 180.1Q573.3 179.6 573.9 178.6Q574.5 177.6 574.4 176.2ZM591.1 185.5L585.0 185.5L585.0 163.7L590.9 163.7L590.9 167.5L591.1 167.5Q591.7 165.4 593.1 164.4Q594.5 163.3 596.3 163.3L596.3 163.3Q596.8 163.3 597.3 163.4Q597.8 163.5 598.2 163.6L598.2 163.6L598.2 168.9Q597.8 168.8 597.1 168.7Q596.3 168.6 595.7 168.6L595.7 168.6Q594.4 168.6 593.3 169.2Q592.3 169.7 591.7 170.8Q591.1 171.8 591.1 173.1L591.1 173.1L591.1 185.5Z M315.3 242.0L309.3 242.0L309.3 212.9L315.4 212.9L315.4 223.8L315.6 223.8Q316.0 222.9 316.7 222.0Q317.5 221.1 318.7 220.5Q319.9 219.8 321.8 219.8L321.8 219.8Q324.2 219.8 326.2 221.1Q328.2 222.3 329.4 224.8Q330.6 227.3 330.6 231.1L330.6 231.1Q330.6 234.7 329.4 237.2Q328.3 239.7 326.3 241.0Q324.3 242.3 321.8 242.3L321.8 242.3Q320.0 242.3 318.8 241.7Q317.5 241.1 316.8 240.3Q316.0 239.4 315.6 238.5L315.6 238.5L315.3 238.5L315.3 242.0ZM315.3 231.0L315.3 231.0Q315.3 233.0 315.8 234.4Q316.3 235.9 317.4 236.7Q318.4 237.5 319.8 237.5L319.8 237.5Q321.3 237.5 322.3 236.7Q323.4 235.9 323.9 234.4Q324.4 232.9 324.4 231.0L324.4 231.0Q324.4 229.2 323.9 227.7Q323.4 226.3 322.4 225.5Q321.3 224.7 319.8 224.7L319.8 224.7Q318.4 224.7 317.4 225.4Q316.3 226.2 315.8 227.7Q315.3 229.1 315.3 231.0ZM348.3 232.7L348.3 232.7L348.3 220.1L354.4 220.1L354.4 242.0L348.5 242.0L348.5 238.0L348.3 238.0Q347.6 239.9 345.9 241.1Q344.2 242.2 341.7 242.2L341.7 242.2Q339.5 242.2 337.9 241.2Q336.2 240.2 335.3 238.4Q334.3 236.6 334.3 234.0L334.3 234.0L334.3 220.1L340.4 220.1L340.4 232.9Q340.4 234.9 341.4 236.0Q342.4 237.1 344.1 237.1L344.1 237.1Q345.2 237.1 346.2 236.6Q347.1 236.1 347.7 235.1Q348.3 234.1 348.3 232.7ZM377.0 226.4L377.0 226.4L371.5 226.7Q371.3 226.0 370.9 225.4Q370.4 224.8 369.6 224.5Q368.9 224.1 367.8 224.1L367.8 224.1Q366.4 224.1 365.5 224.7Q364.5 225.3 364.5 226.3L364.5 226.3Q364.5 227.1 365.1 227.6Q365.7 228.2 367.3 228.5L367.3 228.5L371.2 229.3Q374.4 229.9 376.0 231.4Q377.5 232.8 377.5 235.2L377.5 235.2Q377.5 237.3 376.3 239.0Q375.0 240.6 372.8 241.5Q370.6 242.4 367.8 242.4L367.8 242.4Q363.5 242.4 360.9 240.6Q358.3 238.8 357.9 235.6L357.9 235.6L363.9 235.3Q364.1 236.6 365.2 237.3Q366.2 238.0 367.8 238.0L367.8 238.0Q369.4 238.0 370.4 237.4Q371.4 236.8 371.4 235.8L371.4 235.8Q371.4 235.0 370.7 234.4Q370.0 233.9 368.6 233.6L368.6 233.6L364.8 232.9Q361.6 232.2 360.0 230.7Q358.5 229.1 358.5 226.6L358.5 226.6Q358.5 224.5 359.6 223.0Q360.8 221.5 362.9 220.7Q364.9 219.8 367.7 219.8L367.7 219.8Q371.9 219.8 374.2 221.6Q376.6 223.3 377.0 226.4ZM387.1 242.0L381.0 242.0L381.0 220.1L387.1 220.1L387.1 242.0ZM384.1 217.3L384.1 217.3Q382.7 217.3 381.8 216.4Q380.8 215.5 380.8 214.3L380.8 214.3Q380.8 213.0 381.8 212.1Q382.7 211.2 384.1 211.2L384.1 211.2Q385.4 211.2 386.4 212.1Q387.3 213.0 387.3 214.3L387.3 214.3Q387.3 215.5 386.4 216.4Q385.4 217.3 384.1 217.3ZM397.6 229.3L397.6 229.3L397.6 242.0L391.6 242.0L391.6 220.1L397.3 220.1L397.3 224.0L397.6 224.0Q398.3 222.1 400.0 221.0Q401.7 219.8 404.2 219.8L404.2 219.8Q406.4 219.8 408.1 220.8Q409.8 221.8 410.8 223.7Q411.7 225.5 411.7 228.1L411.7 228.1L411.7 242.0L405.6 242.0L405.6 229.1Q405.7 227.1 404.6 226.0Q403.6 224.9 401.8 224.9L401.8 224.9Q400.5 224.9 399.6 225.4Q398.7 225.9 398.2 226.9Q397.6 227.9 397.6 229.3ZM426.1 242.4L426.1 242.4Q422.7 242.4 420.3 241.0Q417.9 239.6 416.6 237.1Q415.3 234.6 415.3 231.1L415.3 231.1Q415.3 227.8 416.6 225.2Q417.9 222.7 420.2 221.3Q422.6 219.8 425.8 219.8L425.8 219.8Q428.0 219.8 429.9 220.5Q431.7 221.2 433.1 222.6Q434.5 224.0 435.3 226.1Q436.1 228.1 436.1 230.9L436.1 230.9L436.1 232.6L417.7 232.6L417.7 228.8L430.4 228.8Q430.4 227.5 429.8 226.5Q429.3 225.5 428.3 224.9Q427.3 224.4 425.9 224.4L425.9 224.4Q424.6 224.4 423.5 225.0Q422.4 225.6 421.8 226.7Q421.2 227.7 421.2 229.0L421.2 229.0L421.2 232.6Q421.2 234.2 421.8 235.4Q422.4 236.6 423.5 237.2Q424.7 237.9 426.2 237.9L426.2 237.9Q427.2 237.9 428.0 237.6Q428.9 237.3 429.5 236.7Q430.1 236.2 430.4 235.3L430.4 235.3L436.0 235.7Q435.5 237.7 434.2 239.2Q432.9 240.7 430.8 241.5Q428.8 242.4 426.1 242.4ZM457.9 226.4L457.9 226.4L452.3 226.7Q452.2 226.0 451.7 225.4Q451.3 224.8 450.5 224.5Q449.7 224.1 448.7 224.1L448.7 224.1Q447.3 224.1 446.3 224.7Q445.3 225.3 445.3 226.3L445.3 226.3Q445.3 227.1 446.0 227.6Q446.6 228.2 448.1 228.5L448.1 228.5L452.1 229.3Q455.2 229.9 456.8 231.4Q458.4 232.8 458.4 235.2L458.4 235.2Q458.4 237.3 457.1 239.0Q455.9 240.6 453.7 241.5Q451.5 242.4 448.7 242.4L448.7 242.4Q444.3 242.4 441.8 240.6Q439.2 238.8 438.8 235.6L438.8 235.6L444.7 235.3Q445.0 236.6 446.0 237.3Q447.0 238.0 448.7 238.0L448.7 238.0Q450.3 238.0 451.2 237.4Q452.2 236.8 452.2 235.8L452.2 235.8Q452.2 235.0 451.5 234.4Q450.8 233.9 449.4 233.6L449.4 233.6L445.6 232.9Q442.4 232.2 440.9 230.7Q439.3 229.1 439.3 226.6L439.3 226.6Q439.3 224.5 440.5 223.0Q441.6 221.5 443.7 220.7Q445.8 219.8 448.6 219.8L448.6 219.8Q452.7 219.8 455.1 221.6Q457.5 223.3 457.9 226.4ZM480.0 226.4L480.0 226.4L474.5 226.7Q474.3 226.0 473.9 225.4Q473.4 224.8 472.6 224.5Q471.9 224.1 470.8 224.1L470.8 224.1Q469.4 224.1 468.5 224.7Q467.5 225.3 467.5 226.3L467.5 226.3Q467.5 227.1 468.1 227.6Q468.7 228.2 470.3 228.5L470.3 228.5L474.2 229.3Q477.4 229.9 479.0 231.4Q480.5 232.8 480.5 235.2L480.5 235.2Q480.5 237.3 479.3 239.0Q478.0 240.6 475.8 241.5Q473.6 242.4 470.8 242.4L470.8 242.4Q466.5 242.4 463.9 240.6Q461.3 238.8 460.9 235.6L460.9 235.6L466.9 235.3Q467.1 236.6 468.2 237.3Q469.2 238.0 470.8 238.0L470.8 238.0Q472.4 238.0 473.4 237.4Q474.4 236.8 474.4 235.8L474.4 235.8Q474.4 235.0 473.7 234.4Q473.0 233.9 471.6 233.6L471.6 233.6L467.8 232.9Q464.6 232.2 463.0 230.7Q461.5 229.1 461.5 226.6L461.5 226.6Q461.5 224.5 462.6 223.0Q463.8 221.5 465.9 220.7Q467.9 219.8 470.7 219.8L470.7 219.8Q474.9 219.8 477.2 221.6Q479.6 223.3 480.0 226.4ZM487.6 242.3L487.6 242.3Q486.2 242.3 485.2 241.3Q484.1 240.3 484.1 238.9L484.1 238.9Q484.1 237.5 485.2 236.5Q486.2 235.5 487.6 235.5L487.6 235.5Q488.9 235.5 489.9 236.5Q491.0 237.5 491.0 238.9L491.0 238.9Q491.0 239.8 490.5 240.6Q490.0 241.4 489.2 241.9Q488.5 242.3 487.6 242.3Z "/></svg>